<svg xmlns="http://www.w3.org/2000/svg" viewBox="0 0 24 24" fill="none" stroke="currentColor" stroke-width="2" stroke-linecap="round" stroke-linejoin="round" width="24" height="24">
    <rect x="2" y="2" width="20" height="20" rx="5" ry="5" fill="#0077B5"></rect>
    <path d="M6.94 7.5h2.122V17H6.94V7.5zm1.06-2.625a1.237 1.237 0 1 1 0 2.475 1.237 1.237 0 0 1 0-2.475zm7.312 4.125c-1.41 0-2.563.89-2.563 2.82v4.68h-2.12V10h2.122v.985c.306-.475.768-.825 1.41-.825 1.028 0 1.81.625 1.81 1.97v4.87h-2.122v-4.125c0-1.185-.057-2.195-1.192-2.195-.89 0-1.25.745-1.25 1.62v4.7h-2.12V10h2.12v.805h-.03c.33-.525.837-1.155 1.772-1.155 1.51 0 2.63 1.005 2.63 3.175v4.675H17V11.84c0-2.175-1.25-3.34-2.69-3.34z" fill="#FFF"></path>
</svg>


